<svg width="688" height="645" viewBox="0 0 688 645" fill="none" xmlns="http://www.w3.org/2000/svg">
<path d="M294.565 26.7485C188.003 43.4104 99.3751 114.18 57.6681 210.068L0 215.471L40.5478 261.258C34.9558 284.593 31.9943 308.951 31.9943 334C31.9943 373.381 39.3139 411.052 52.6668 445.728L92.6171 376.532C90.235 362.544 88.9943 348.167 88.9943 333.5C88.9943 310.201 92.1251 287.633 97.9891 266.194L128.175 263.847L105.868 242.183C132.075 174.03 186.758 120.004 255.345 94.68L294.565 26.7485Z" fill="white"/>
<path d="M594.371 376.532C596.754 362.544 597.994 348.167 597.994 333.5C597.994 310.391 594.914 288 589.142 266.718L559.108 264.382L581.35 242.781C555.233 174.346 500.431 120.078 431.644 94.68L392.524 26.9226C498.755 43.9238 587.022 114.723 628.508 210.5L687.283 216.006L645.814 262.833C651.164 285.688 653.994 309.514 653.994 334C653.994 372.987 646.82 410.299 633.721 444.687L594.371 376.532Z" fill="white"/>
<path d="M180.843 529.25C224.946 565.936 281.643 588 343.494 588C405.345 588 462.043 565.936 506.146 529.25H585.079C528.068 599.848 440.804 645 342.994 645C245.185 645 157.921 599.848 100.909 529.25H180.843Z" fill="white"/>
<path d="M345 0L484.5 265.5L345 487.5L203 265.5L345 0Z" fill="#28E7F3"/>
<path d="M345 604.5L514.886 587.447L484.515 368.568L345 587.447L345 604.5Z" fill="white"/>
<path d="M238.547 583.051L171.965 587.447L202.336 368.568L345 587.447L345 618.5L238.547 583.051Z" fill="white"/>
</svg>
