<svg width="18" height="19" viewBox="0 0 14 15" fill="none" xmlns="http://www.w3.org/2000/svg">
<path d="M12.2795 6.67284C12.2795 6.67284 14 7.65942 14 8.75934C14 9.83258 11.9994 10.2059 9.7854 10.0992C9.7854 10.0992 8.84512 11.4125 7.94485 11.9657C8.91847 13.7923 9.66536 14.4989 9.64536 14.4989C9.64536 14.4989 9.15188 14.6255 7.66476 12.1924C6.77116 12.759 5.77753 12.9857 5.37074 12.6324C4.95728 12.2791 5.27738 11.6858 5.45077 11.3991C5.27071 11.4991 4.33043 12.0524 3.49685 12.0524C2.50321 12.0524 2.36317 11.3125 2.36317 10.9325C2.36317 9.49928 3.74359 7.49944 3.74359 7.49944C3.74359 7.49944 3.10339 6.08622 3.03004 4.97964C1.77633 4.87298 0.329227 5.09296 0.0157997 5.19296C-0.070893 5.19296 0.222528 4.97964 0.329227 4.95298C0.429257 4.91964 1.60294 4.613 2.9967 4.613C2.9967 3.4531 3.2301 2.38651 3.93698 2.38651C4.41712 2.38651 4.8039 3.13312 4.8039 3.13312C4.8039 3.13312 4.79724 0.5 6.15764 0.5C7.53139 0.5 8.9985 3.57309 8.9985 3.57309C8.9985 3.57309 10.4789 3.71307 11.5659 4.22637C11.9994 3.31977 12.3928 2.90647 12.873 1.49992C12.9997 1.96655 12.4662 3.16645 11.8994 4.36636C11.3325 5.56626 13.4332 5.16629 13.4332 6.05289C13.4332 6.72617 12.2795 6.67284 12.2795 6.67284ZM6.11763 11.8858C6.5711 11.9591 7.27131 11.5658 7.26464 11.5658L6.71781 10.5459L5.93091 11.0991C5.92424 11.1058 5.42409 11.7524 6.11763 11.8858ZM12.4329 6.00622C12.4329 5.56626 11.6326 5.0663 11.5393 5.01297L10.9257 5.99956L11.7793 6.41286C12.0594 6.39286 12.4329 6.39953 12.4329 6.00622ZM4.33043 3.25311C4.13037 3.25311 3.72358 3.54642 3.72358 4.593L4.88393 4.633L4.81057 3.69974C4.73055 3.49976 4.53049 3.25311 4.33043 3.25311ZM5.7842 10.0192C4.94395 9.58594 4.43713 8.87266 4.02367 8.09939C4.02367 8.09939 2.97002 9.86591 3.64356 10.3125C4.33043 10.7592 5.42409 10.2725 5.7842 10.0192ZM7.64476 11.3391C8.40499 10.7592 10.4589 9.31929 10.6323 6.88615C8.71175 5.79291 6.07762 5.30628 6.07762 5.30628C6.07762 5.30628 6.07095 4.97297 6.13097 4.73966C6.75782 4.81299 8.72508 5.14629 10.3522 5.78624C9.89877 5.01964 9.55867 4.73299 9.24524 4.49968C10.0188 4.673 10.5723 5.67292 10.5723 5.67292L11.1858 4.80632C11.1858 4.80632 8.27161 3.23978 5.79087 4.44635C5.73752 6.36619 6.72448 9.20597 6.72448 9.20597L6.21099 9.42595C5.86422 8.72601 5.41742 7.55943 4.9973 5.27962C4.79724 5.55293 4.4438 5.86624 4.43713 6.89282C4.13037 6.03289 4.77056 5.11963 4.77723 5.11296L3.71024 5.0063C3.77693 6.11288 4.36377 8.96599 6.11763 9.85258C7.66476 8.97265 9.33193 7.1928 9.75206 6.6795L10.2122 7.01948L7.2313 10.1459C8.05822 10.1659 8.54503 9.97924 8.87846 9.83258C8.39832 10.3325 7.5714 10.3792 7.17795 10.3792C7.18462 10.3925 7.37801 10.8792 7.64476 11.3391ZM8.35164 3.53309C8.33163 3.47976 7.43803 1.95988 6.64446 2.07321C6.1243 2.23986 5.82421 3.11979 5.81754 4.07971C6.17098 3.87306 6.9979 3.49976 8.35164 3.53309ZM10.1388 9.54594C10.1388 9.54594 12.3328 9.49928 12.2661 8.67268C12.2661 7.87274 10.9457 7.05281 10.9457 7.06614C10.9524 8.47936 10.1388 9.54594 10.1388 9.54594Z" fill="#828689"/>
</svg>
