<svg width="89" height="89" viewBox="0 0 89 89" fill="none" xmlns="http://www.w3.org/2000/svg">
<g clip-path="url(#clip0_410_2)">
<path d="M86.523 59.1396C88.1254 54.5526 88.9998 49.6268 88.9998 44.4998C88.9998 39.3728 88.1254 34.4469 86.523 29.86C86.4839 29.7222 86.4375 29.5879 86.3814 29.4586C80.2006 12.3012 63.7611 0 44.5004 0C25.2397 0 8.79978 12.3012 2.6194 29.4586C2.56326 29.5883 2.51648 29.7222 2.47778 29.86C0.875384 34.4469 0.0010376 39.3728 0.0010376 44.4998C0.0010376 49.6268 0.875384 54.5526 2.47778 59.1396C2.51691 59.2773 2.56326 59.4117 2.6194 59.541C8.80021 76.6988 25.2397 88.9996 44.5004 88.9996C63.7611 88.9996 80.2006 76.6984 86.3814 59.541C86.4375 59.4117 86.4839 59.2778 86.523 59.1396ZM44.5004 82.621C42.8057 82.621 40.0734 79.554 37.7897 72.7021C36.6874 69.3957 35.805 65.5947 35.162 61.4598H53.8388C53.1958 65.5947 52.3134 69.3953 51.2115 72.7021C48.9274 79.554 46.1951 82.621 44.5004 82.621ZM34.388 55.0808C34.0814 51.6795 33.9194 48.1311 33.9194 44.4998C33.9194 40.8684 34.0814 37.32 34.388 33.9188H54.6124C54.919 37.32 55.081 40.8684 55.081 44.4998C55.081 48.1311 54.919 51.6795 54.6124 55.0808H34.388ZM6.3796 44.5002C6.3796 40.8302 6.90225 37.2801 7.87483 33.9192H27.9899C27.6918 37.3906 27.5404 40.9484 27.5404 44.5002C27.5404 48.052 27.6914 51.6098 27.9899 55.0812H7.87483C6.90225 51.72 6.3796 48.1703 6.3796 44.5002ZM44.5004 6.37898C46.1951 6.37898 48.9278 9.446 51.2115 16.2979C52.3134 19.6043 53.1962 23.4053 53.8388 27.5398H35.1616C35.8046 23.4049 36.687 19.6043 37.7893 16.2979C40.0734 9.446 42.8057 6.37898 44.5004 6.37898ZM61.0105 33.9192H81.1255C82.0981 37.2801 82.6208 40.8302 82.6208 44.5002C82.6208 48.1703 82.0981 51.7204 81.1255 55.0812H61.0105C61.3086 51.6098 61.46 48.052 61.46 44.5002C61.46 40.9484 61.3086 37.3906 61.0105 33.9192ZM78.6331 27.5402H60.2786C59.144 19.7166 57.1976 12.6976 54.4669 7.70411C65.0539 10.5742 73.825 17.902 78.6331 27.5402ZM34.5335 7.70369C31.8028 12.6972 29.8564 19.7162 28.7218 27.5402H10.3673C15.1758 17.902 23.9465 10.5742 34.5335 7.70369ZM10.3673 61.4598H28.7218C29.8564 69.2834 31.8028 76.3024 34.5335 81.2963C23.9465 78.4258 15.1758 71.0985 10.3673 61.4598ZM54.4669 81.2963C57.1976 76.3029 59.144 69.2838 60.2786 61.4598H78.6331C73.825 71.0985 65.0539 78.4258 54.4669 81.2963Z" fill="white"/>
</g>
<defs>
<clipPath id="clip0_410_2">
<rect width="89" height="89" fill="white"/>
</clipPath>
</defs>
</svg>
