<svg width="17" height="19" viewBox="0 0 13 15" fill="none" xmlns="http://www.w3.org/2000/svg">
<path d="M4.91006 10.168L4.90285 10.1464L4.8934 10.1225L4.88378 10.101L4.87658 10.0794L4.86712 10.0579L4.85753 10.034L4.8503 10.0124L4.84069 9.9909L4.83126 9.96943L4.82403 9.94781L4.81441 9.92392L4.80737 9.90243L4.79775 9.8808L4.78814 9.85931L4.78096 9.83782L4.77148 9.81382L4.76189 9.7923L4.75468 9.77084L4.74507 9.74922L4.73561 9.72533L4.72841 9.7037L4.7188 9.68221L4.70934 9.7037L4.70216 9.72533L4.69255 9.74922L4.68293 9.77084L4.67586 9.7923L4.66627 9.81382L4.65666 9.83782L4.6472 9.85931L4.63997 9.8808L4.63038 9.90243L4.62077 9.92392L4.6137 9.94781L4.60411 9.96943L4.59449 9.9909L4.58732 10.0124L4.57783 10.034L4.56822 10.0579L4.55863 10.0794L4.55159 10.101L4.54197 10.1225L4.53236 10.1464L4.52515 10.168L4.5157 10.1895H4.91964L4.91006 10.168Z" fill="#FFFFFF"/>
<path d="M5.55782 4.88547C5.77986 4.88547 5.88664 4.7786 5.88664 4.54853V3.10246C5.88664 2.87244 5.77986 2.76568 5.55782 2.76568H5.19595V4.88547H5.55782Z" fill="#FFFFFF"/>
<path fill-rule="evenodd" clip-rule="evenodd" d="M1.18056 0H11.8194C12.6817 0 13 0.316442 13 1.17428V11.5255C13 11.6226 12.996 11.7127 12.9874 11.7963C12.9858 11.8119 12.9842 11.8275 12.9827 11.843C12.966 12.014 12.9495 12.1822 12.7889 12.3716C12.7719 12.3918 12.5931 12.5241 12.5931 12.5241C12.5757 12.5326 12.5593 12.5406 12.5435 12.5484C12.4718 12.5838 12.4116 12.6134 12.3227 12.649L7.084 14.8314C6.81201 14.9554 6.69829 15.0037 6.50076 14.9998V14.9998H6.49921V14.9998C6.30168 15.0037 6.18796 14.9554 5.916 14.8314L0.677272 12.649C0.588261 12.6133 0.52807 12.5837 0.456193 12.5483C0.440477 12.5405 0.424203 12.5325 0.406947 12.5241C0.406947 12.5241 0.228141 12.3918 0.211026 12.3716C0.0504892 12.1822 0.0340011 12.014 0.0172473 11.843C0.0157236 11.8275 0.0141978 11.8119 0.0125613 11.7963C0.00393701 11.7127 0 11.6226 0 11.5255V1.17428C0 0.316442 0.318241 0 1.18056 0ZM3.9935 12.9448H9.03023L6.4594 13.7878L3.9935 12.9448ZM11.1069 10.4068L11.1044 10.4307L11.1021 10.4569L11.0972 10.4808L11.0901 10.5047L11.0854 10.5261L11.0782 10.55L11.0686 10.5715L11.059 10.5907L11.0495 10.6121L11.0255 10.6503L11.0112 10.6694L10.9992 10.6885L10.985 10.7052L10.9681 10.7219L10.9539 10.7363L10.9347 10.753L10.918 10.7673L10.8988 10.7817L10.8797 10.7934L10.8607 10.8078L10.839 10.8197L10.8176 10.8292L10.7961 10.8412L10.7721 10.8507L10.7482 10.8603L10.7244 10.8674L10.7005 10.8746L10.6789 10.8818L10.655 10.8866L10.6121 10.8961L10.5881 10.9009L10.5642 10.9033L10.5427 10.9057L10.5187 10.9081L10.4924 10.9104L10.4686 10.9128H10.3681L10.3442 10.9104H10.318L10.2701 10.9057L10.2438 10.9033L10.22 10.8985L10.1961 10.8961L10.1721 10.8913L10.1482 10.8866L10.1243 10.8818L10.1005 10.877L10.0765 10.8699L10.055 10.8651L10.0072 10.8507L9.98565 10.8412L9.96178 10.834L9.9403 10.8269L9.91641 10.8173L9.89482 10.8078L9.87334 10.7982L9.85186 10.7864L9.83028 10.7769L9.8088 10.7649L9.78973 10.753L9.76811 10.741L9.74904 10.7291L9.72984 10.7172L9.6917 10.6885L9.67249 10.6742L9.6534 10.6599L9.6366 10.6455L9.61754 10.6288L9.63195 10.6097L9.6486 10.593L9.66301 10.5739L9.6797 10.5548L9.69411 10.5381L9.70836 10.519L9.72518 10.4999L9.73943 10.4832L9.75625 10.4641L9.77052 10.4474L9.78732 10.4283L9.80159 10.4092L9.816 10.3925L9.83266 10.3734L9.84707 10.3542L9.86373 10.3375L9.87814 10.3184L9.89721 10.3328L9.91869 10.3471L9.93789 10.3614L9.95937 10.3758L9.97858 10.3877L10.0001 10.402L10.0191 10.4139L10.0407 10.4235L10.0598 10.4354L10.0813 10.445L10.1029 10.4545L10.1243 10.4641L10.1458 10.4713L10.1674 10.4808L10.2152 10.4951L10.2366 10.5023L10.3084 10.5166L10.3347 10.519L10.3587 10.5238H10.3826L10.4088 10.5261H10.4613L10.4876 10.5238L10.5116 10.519L10.5331 10.5142L10.5546 10.5095L10.5738 10.5023L10.5905 10.4928L10.6097 10.4784L10.6239 10.4617L10.6335 10.4426L10.6408 10.4211L10.6431 10.3972V10.3925L10.6408 10.3638L10.6312 10.3399L10.6191 10.3232L10.6025 10.3089L10.5832 10.2946L10.5642 10.285L10.5427 10.2755L10.5187 10.2659L10.49 10.254L10.4733 10.2492L10.4543 10.2444L10.4327 10.2372L10.4112 10.2325L10.3873 10.2253L10.3633 10.2205L10.3371 10.2134L10.3132 10.2086L10.2869 10.2015L10.263 10.1967L10.239 10.1895L10.2152 10.1847L10.1913 10.1776L10.1697 10.1704L10.1458 10.1656L10.1029 10.1513L10.0813 10.1441L10.055 10.1346L10.0311 10.125L9.98324 10.1059L9.96178 10.094L9.93789 10.0821L9.91869 10.0701L9.89721 10.0582L9.87814 10.0439L9.85893 10.0319L9.84227 10.0176L9.82548 10.0009L9.8088 9.98416L9.79439 9.96744L9.78014 9.95074L9.76811 9.93404L9.75625 9.91492L9.74425 9.89345L9.73463 9.87689L9.72743 9.85777L9.72038 9.83628L9.71318 9.81718L9.70836 9.79329L9.70356 9.7718L9.70115 9.74794L9.69877 9.72405L9.69636 9.69782V9.64287L9.69877 9.61901L9.70115 9.59752L9.70356 9.57363L9.71318 9.53067L9.72038 9.50915L9.72518 9.48769L9.73463 9.4662L9.75384 9.42324L9.76573 9.40172L9.7777 9.38026L9.79198 9.36113L9.80641 9.34204L9.82307 9.32294L9.83986 9.30625L9.85655 9.28712L9.87575 9.2704L9.89241 9.25847L9.91162 9.24414L9.93071 9.22981L9.94976 9.21788L9.97137 9.20595L9.99285 9.19639L10.0143 9.18446L10.0359 9.17492L10.0598 9.16773L10.0836 9.1582L10.1053 9.15103L10.1243 9.14624L10.1674 9.13671L10.1913 9.13194L10.2128 9.12715L10.2845 9.11998L10.3084 9.11761H10.4112L10.4638 9.12238H10.4876L10.514 9.12478L10.5379 9.12954L10.5642 9.13194L10.5881 9.13671L10.6097 9.14147L10.6335 9.14624L10.6574 9.15103L10.6789 9.1558L10.7029 9.16297L10.7244 9.17013L10.7458 9.17492L10.7698 9.18446L10.7913 9.19162L10.8343 9.21072L10.8582 9.22028L10.8797 9.23221L10.8988 9.24177L10.9204 9.2537L10.9419 9.26563L10.961 9.27759L10.9826 9.29192L11.0016 9.30382L11.0209 9.31818L11.059 9.34681L11.0447 9.36593L11.0327 9.38502L11.0184 9.40412L11.004 9.42324L10.9898 9.44471L10.9778 9.4638L10.9633 9.48292L10.9491 9.50202L10.9371 9.52111L10.9228 9.54023L10.9084 9.55933L10.8964 9.57842L10.8821 9.59992L10.8677 9.61901L10.8535 9.63811L10.8415 9.6572L10.8272 9.6763L10.808 9.662L10.7865 9.65004L10.7674 9.63811L10.7482 9.62378L10.7268 9.61424L10.7075 9.60229L10.6861 9.59273L10.667 9.58319L10.6454 9.57363L10.6263 9.5641L10.6049 9.55693L10.5857 9.54737L10.5594 9.54023L10.5355 9.53304L10.5116 9.52591L10.4638 9.51635L10.4399 9.51155L10.416 9.50915L10.392 9.50678L10.3706 9.50439H10.318L10.2917 9.50915L10.2677 9.51395L10.2462 9.51872L10.2272 9.52828L10.2104 9.53781L10.1889 9.55693L10.1745 9.57842L10.165 9.59992L10.1626 9.62378V9.62857L10.165 9.6596L10.1769 9.68586L10.1865 9.70019L10.2032 9.71691L10.2248 9.72884L10.2438 9.74077L10.2677 9.75033L10.2941 9.75989L10.3228 9.76943L10.3419 9.7742L10.3609 9.78136L10.3826 9.78613L10.404 9.79329L10.4279 9.79808L10.4806 9.81239L10.5069 9.81958L10.5331 9.82434L10.557 9.83151L10.5832 9.83867L10.6073 9.84344L10.655 9.85777L10.6765 9.86493L10.7005 9.8721L10.7434 9.88642L10.7698 9.89582L10.7937 9.90778L10.8176 9.91732L10.8415 9.92925L10.8631 9.94121L10.8846 9.95314L10.9036 9.96507L10.9228 9.9794L10.9419 9.99133L10.961 10.0081L10.9802 10.0247L10.9968 10.0439L11.0136 10.0606L11.0279 10.0797L11.0423 10.1012L11.0542 10.1203L11.0662 10.1418L11.0758 10.1609L11.083 10.1823L11.0901 10.2038L11.0949 10.2253L11.1044 10.2731L11.1069 10.297L11.1093 10.3232V10.3805L11.1069 10.4068ZM8.06059 10.8842V9.14624H9.44226V9.54023H8.51709V9.82434H9.34903V10.1943H8.51709V10.4903H9.45426V10.8842H8.06059ZM7.24626 10.8842V9.85649L7.23429 9.87558L7.22002 9.89724L7.20799 9.91633L7.19374 9.93545L7.18174 9.95692L7.16731 9.97604L7.15547 9.99513L7.14344 10.0168L7.1292 10.0359L7.11717 10.0549L7.10279 10.0741L7.09092 10.0957L7.07651 10.1148L7.06465 10.1339L7.05262 10.1554L7.03821 10.1746L7.02635 10.1937L7.01194 10.2152L7.0001 10.2343L6.98569 10.2534L6.97382 10.275L6.9618 10.2942L6.94742 10.3133L6.93555 10.3347L6.92114 10.354L6.90928 10.3731L6.89487 10.3922L6.88284 10.4137L6.87098 10.4329L6.85659 10.452L6.84473 10.4735L6.83032 10.4926L6.81832 10.5117L6.80405 10.5333L6.79205 10.5524H6.78256L6.76818 10.5309L6.75616 10.5117L6.74188 10.4902L6.72988 10.4711L6.71561 10.4496L6.70361 10.4304L6.68936 10.4089L6.67733 10.3898L6.66292 10.3683L6.65106 10.3492L6.63665 10.3276L6.62481 10.3085L6.6104 10.287L6.59837 10.2679L6.58413 10.2462L6.5721 10.2272L6.55785 10.2057L6.54344 10.1866L6.53144 10.1649L6.51717 10.1458L6.50517 10.1244L6.49089 10.1053L6.47889 10.0836L6.46462 10.0645L6.45262 10.043L6.43821 10.0239L6.42635 10.0024L6.41194 9.98318L6.40007 9.96171L6.38566 9.94259L6.37366 9.9211L6.35941 9.90203L6.34736 9.88038L6.33311 9.86128V10.8842H5.87886V9.14624H6.369L6.38087 9.16536L6.39287 9.18683L6.40711 9.20579L6.41914 9.22728L6.43114 9.24638L6.443 9.2679L6.455 9.28683L6.46931 9.30835L6.48128 9.32745L6.4933 9.34654L6.50517 9.36787L6.51717 9.38699L6.53144 9.40846L6.54344 9.42758L6.55544 9.44891L6.56731 9.46801L6.58172 9.4871L6.59374 9.50849L6.60558 9.52756L6.61758 9.54905L6.62947 9.56817L6.64388 9.5895L6.65588 9.60863L6.66772 9.63009L6.67974 9.64905L6.69161 9.66815L6.70602 9.68964L6.71802 9.70876L6.72988 9.73025L6.74188 9.74922L6.75375 9.77071L6.76818 9.7898L6.78018 9.81113L6.79205 9.83026L6.80405 9.81113L6.81604 9.7898L6.83032 9.77071L6.84229 9.74922L6.85418 9.73025L6.86618 9.70876L6.88046 9.68964L6.89246 9.66815L6.90448 9.64905L6.91632 9.63009L6.93073 9.60863L6.9426 9.5895L6.95462 9.56817L6.96659 9.54905L6.98087 9.52756L6.99287 9.50849L7.00489 9.4871L7.01673 9.46801L7.02878 9.44891L7.04303 9.42758L7.05503 9.40846L7.06703 9.38699L7.07892 9.36787L7.09331 9.34654L7.1052 9.32745L7.11717 9.30835L7.1292 9.28683L7.14344 9.2679L7.15547 9.24638L7.16731 9.22728L7.17933 9.20579L7.19374 9.18683L7.20561 9.16536L7.21761 9.14624H7.70758V10.8842H7.24626ZM5.19214 10.8842L5.18266 10.8627L5.17545 10.8412L5.16586 10.8197L5.15625 10.7958L5.14918 10.7745L5.12997 10.7315L5.1229 10.71L5.11331 10.6885L5.1037 10.667L5.09652 10.6455L5.08704 10.6217L5.07743 10.6002L5.07022 10.5787L5.06061 10.5572H4.37457L4.36512 10.5787L4.35792 10.6002L4.3483 10.6217L4.33871 10.6455L4.33164 10.667L4.32205 10.6885L4.31244 10.71L4.30523 10.7315L4.29578 10.753L4.28616 10.7745L4.27896 10.7958L4.26948 10.8197L4.25989 10.8412L4.25268 10.8627L4.24307 10.8842H3.7603L3.76975 10.8627L3.77937 10.8412L3.78896 10.8197L3.79844 10.7958L3.80564 10.7745L3.81526 10.753L3.82484 10.7315L3.8343 10.71L3.84391 10.6885L3.85353 10.6646L3.86298 10.6431L3.8726 10.6217L3.87978 10.6002L3.88939 10.5787L3.89885 10.5572L3.90846 10.5333L3.91805 10.5118L3.92753 10.4903L3.93715 10.4689L3.94674 10.4474L3.95394 10.4259L3.9634 10.402L3.98263 10.359L3.99208 10.3375L4.01131 10.2946L4.02077 10.2707L4.02797 10.2492L4.03759 10.2277L4.04717 10.2062L4.05666 10.1847L4.06624 10.1632L4.07583 10.1394L4.08531 10.1179L4.0949 10.0964L4.10211 10.0749L4.11172 10.0534L4.12118 10.0319L4.13079 10.0081L4.14041 9.98656L4.14986 9.96507L4.15945 9.94358L4.16907 9.92211L4.17627 9.90059L4.18575 9.87926L4.19534 9.85537L4.20493 9.8339L4.21441 9.81239L4.224 9.79089L4.23361 9.76943L4.24307 9.74794L4.25027 9.72405L4.25989 9.70258L4.26948 9.68109L4.27896 9.6596L4.28857 9.63811L4.29816 9.61661L4.30764 9.59273L4.31723 9.57126L4.32444 9.54977L4.33402 9.52828L4.34351 9.50678L4.35309 9.48529L4.36271 9.46143L4.37216 9.43994L4.39139 9.39695L4.39844 9.37549L4.40805 9.35397L4.41767 9.33011L4.42728 9.30862L4.43674 9.28712L4.44635 9.26563L4.45594 9.24414L4.4654 9.22267L4.47263 9.19879L4.48222 9.17729L4.49183 9.1558L4.50129 9.13431H4.94353L4.95312 9.1558L4.96274 9.17729L4.97222 9.19879L4.98181 9.22267L4.98901 9.24414L4.99847 9.26563L5.00808 9.28712L5.01767 9.30862L5.02729 9.33011L5.03674 9.35397L5.05597 9.39695L5.06302 9.41845L5.08225 9.46143L5.09186 9.48529L5.10132 9.50678L5.1109 9.52828L5.12052 9.54977L5.12997 9.57126L5.13718 9.59273L5.14677 9.61661L5.15625 9.63811L5.16586 9.6596L5.17545 9.68109L5.18507 9.70258L5.19452 9.72405L5.20411 9.74794L5.21134 9.76943L5.2208 9.79089L5.24962 9.85537L5.25907 9.87926L5.26869 9.90059L5.27827 9.92211L5.28535 9.94358L5.29493 9.96507L5.30455 9.98656L5.31403 10.0081L5.32362 10.0319L5.34285 10.0749L5.3523 10.0964L5.35951 10.1179L5.3691 10.1394L5.37858 10.1632L5.38817 10.1847L5.39778 10.2062L5.40737 10.2277L5.41685 10.2492L5.42647 10.2707L5.43364 10.2946L5.44313 10.3161L5.45271 10.3375L5.46233 10.359L5.47178 10.3805L5.4814 10.402L5.49101 10.4259L5.50063 10.4474L5.50767 10.4689L5.5269 10.5118L5.53636 10.5333L5.54595 10.5572L5.56515 10.6002L5.57461 10.6217L5.58184 10.6431L5.59145 10.6646L5.60091 10.6885L5.62008 10.7315L5.62957 10.753L5.63915 10.7745L5.64877 10.7958L5.656 10.8197L5.66543 10.8412L5.67504 10.8627L5.68463 10.8842H5.19214ZM3.56652 10.6622L3.54732 10.6766L3.53063 10.6885L3.51143 10.7029L3.49236 10.7148L3.47329 10.7291L3.45408 10.741L3.43501 10.753L3.4134 10.7649L3.37044 10.7888L3.34885 10.7982L3.32737 10.8102L3.30351 10.8197L3.28205 10.8292L3.25803 10.8388L3.23657 10.8483L3.21507 10.8555L3.19348 10.8627L3.172 10.8699L3.14814 10.877L3.12668 10.8842L3.10266 10.889L3.08118 10.8937L3.05731 10.8985L3.03332 10.9033L3.00942 10.9057L2.98315 10.9081L2.95929 10.9104L2.93301 10.9128L2.90899 10.9152L2.88274 10.9176H2.77989L2.75603 10.9152L2.72975 10.9128L2.70589 10.9104L2.658 10.9057L2.61024 10.8961L2.58879 10.8913L2.56479 10.8866L2.54331 10.8794L2.51945 10.8746L2.49783 10.8674L2.47635 10.8579L2.45487 10.8507L2.43104 10.8412L2.40942 10.8316L2.38794 10.8221L2.36649 10.8125L2.34485 10.8006L2.3258 10.7888L2.30432 10.7769L2.28512 10.7649L2.26605 10.753L2.24685 10.7386L2.20868 10.71L2.19189 10.6957L2.17523 10.6814L2.15841 10.6646L2.14175 10.6503L2.12493 10.6336L2.10827 10.6169L2.09386 10.6002L2.07958 10.5811L2.06517 10.5644L2.05318 10.5453L2.0389 10.5261L2.02693 10.5071L2.01504 10.488L2.00304 10.4665L1.99104 10.4474L1.98158 10.4259L1.97197 10.4044L1.96238 10.3829L1.9529 10.3614L1.94569 10.3423L1.93608 10.3208L1.93128 10.2993L1.92421 10.2779L1.91942 10.254L1.91221 10.2325L1.90742 10.2086L1.90501 10.1871L1.90019 10.1632L1.89783 10.1418L1.89539 10.1179L1.89314 10.094L1.89076 10.0701V9.99133L1.89314 9.96507V9.94121L1.89539 9.91732L1.89783 9.89106L1.90263 9.86733L1.90501 9.84344L1.9098 9.82195L1.91701 9.79808L1.92183 9.7742L1.92887 9.7527L1.93608 9.72884L1.94328 9.70735L1.9529 9.68346L1.96238 9.662L1.97197 9.6405L1.98158 9.61901L1.99104 9.59752L2.00304 9.57603L2.01504 9.55693L2.02693 9.53781L2.0389 9.51872L2.05093 9.49962L2.06517 9.48053L2.07958 9.46143L2.09386 9.44234L2.10827 9.42558L2.12493 9.40889L2.13934 9.39216L2.17282 9.35874L2.18948 9.34444L2.20868 9.32771L2.22537 9.31338L2.24444 9.29906L2.26364 9.28712L2.28271 9.2728L2.30194 9.26087L2.32098 9.24893L2.34246 9.23698L2.36408 9.22505L2.38553 9.21311L2.40701 9.20355L2.4286 9.19402L2.45249 9.18206L2.47156 9.17492L2.49542 9.16773L2.51706 9.1582L2.53852 9.15341L2.55997 9.14624L2.58397 9.14147L2.60545 9.13431L2.62931 9.12954L2.6532 9.12715L2.6772 9.12238L2.77285 9.11282H2.87551L2.92822 9.11761H2.95208L2.97594 9.11998L3.00222 9.12478L3.02383 9.12715L3.0477 9.13194L3.07159 9.13671L3.09318 9.14147L3.13614 9.15103L3.15775 9.1582L3.1792 9.16297L3.19827 9.17013L3.21989 9.17729L3.24137 9.18683L3.26282 9.19639L3.28444 9.20595L3.30592 9.21788L3.32737 9.22744L3.3466 9.23937L3.36805 9.2513L3.38712 9.26324L3.40874 9.27519L3.42781 9.28949L3.44688 9.30145L3.46608 9.31578L3.48515 9.33011L3.50435 9.34681L3.52342 9.36113L3.50901 9.38026L3.49236 9.39695L3.47795 9.41605L3.46129 9.43514L3.44688 9.45427L3.4326 9.47096L3.41578 9.49006L3.40153 9.50915L3.38712 9.52591L3.37044 9.545L3.35606 9.5641L3.33937 9.58319L3.32496 9.59992L3.31071 9.61901L3.29392 9.63811L3.27961 9.6572L3.26282 9.67393L3.24855 9.69302L3.22934 9.67869L3.21027 9.662L3.19107 9.65004L3.172 9.63571L3.15293 9.62378L3.11463 9.59992L3.09318 9.58796L3.07397 9.57842L3.0549 9.56886L3.0357 9.5617L2.99276 9.54737L2.97115 9.5426L2.94729 9.53781L2.92342 9.53304L2.89953 9.53067L2.87326 9.52828L2.84685 9.52591H2.79671L2.77285 9.52828L2.75123 9.53067L2.72737 9.53544L2.70589 9.54023L2.68427 9.54737L2.66282 9.55454L2.64134 9.5641L2.61986 9.57363L2.60066 9.58556L2.58161 9.59752L2.56238 9.60948L2.54572 9.62378L2.5289 9.63811L2.51224 9.65243L2.49783 9.66913L2.48117 9.68586L2.46676 9.70495L2.45487 9.72168L2.44287 9.74077L2.43104 9.76227L2.41901 9.78136L2.40942 9.80285L2.40222 9.82434L2.39274 9.84584L2.38553 9.8697L2.38074 9.89345L2.37594 9.91492L2.37112 9.94121L2.36874 9.96507L2.36649 9.98893V10.0439L2.36874 10.0677L2.37112 10.0892L2.37353 10.1131L2.38794 10.1776L2.39515 10.1991L2.40222 10.2182L2.41183 10.242L2.42142 10.2635L2.43329 10.285L2.45728 10.3232L2.47156 10.3423L2.48597 10.359L2.50263 10.3758L2.51706 10.3925L2.5337 10.4068L2.55293 10.4211L2.572 10.4354L2.59104 10.4474L2.61024 10.4593L2.6532 10.4784L2.67479 10.488L2.72255 10.5023L2.77044 10.5118L2.7943 10.5142L2.82057 10.5166H2.87551L2.92822 10.5118L2.95208 10.5095L2.97594 10.5047L2.99997 10.4999L3.02383 10.4928L3.04529 10.488L3.06679 10.4784L3.086 10.4689L3.10745 10.4593L3.12424 10.4498L3.14334 10.4378V10.2205H2.7943V9.8721H3.58318V10.6479L3.56652 10.6622ZM2.79768 5.21396H3.83374V4.41708H2.79768V2.79024H3.87499V1.99336H1.91787V7.74455H3.89138V6.94764H2.79768V5.21396ZM10.2187 6.68473V5.38658H11.0821V6.72574C11.0821 7.44062 10.7286 7.79384 10.0132 7.79384H9.5773C8.86202 7.79384 8.50832 7.44062 8.50832 6.72574V3.01213C8.50832 2.29727 8.86202 1.94403 9.5773 1.94403H10.005C10.7203 1.94403 11.0656 2.28912 11.0656 3.00385V4.17885H10.2023V3.05314C10.2023 2.8231 10.0954 2.71635 9.87334 2.71635H9.7253C9.4951 2.71635 9.38815 2.8231 9.38815 3.05314V6.68473C9.38815 6.9148 9.4951 7.02154 9.7253 7.02154H9.88986C10.1118 7.02154 10.2187 6.9148 10.2187 6.68473ZM7.16339 7.74457H8.04334V1.99335H7.16339V7.74457ZM4.31612 1.99335H5.69753C6.41294 1.99335 6.76648 2.34659 6.76648 3.06145V4.5897C6.76648 5.30442 6.41294 5.65764 5.69753 5.65764H5.19595V7.74457H4.31612V1.99335Z" fill="#FFFFFF"/>
</svg>
