<svg width="1000" height="1000" viewBox="0 0 1000 1000" fill="none" xmlns="http://www.w3.org/2000/svg">
<path d="M435.02 111.126C295.012 133.006 178.566 225.938 123.768 351.857L48 358.952L101.275 419.078C93.9273 449.721 90.0363 481.707 90.0363 514.602C90.0363 566.316 99.6533 615.785 117.197 661.32L169.687 570.454C166.557 552.085 164.927 533.205 164.927 513.945C164.927 483.349 169.04 453.714 176.745 425.561L216.405 422.478L187.096 394.029C221.529 304.532 293.376 233.587 383.49 200.332L435.02 111.126Z" fill="white"/>
<path d="M828.927 570.454C832.057 552.085 833.687 533.205 833.687 513.945C833.687 483.598 829.64 454.196 822.056 426.248L782.595 423.18L811.818 394.815C777.504 304.947 705.501 233.684 615.124 200.332L563.726 111.354C703.299 133.68 819.271 226.651 873.777 352.424L951 359.654L896.515 421.146C903.545 451.159 907.263 482.447 907.263 514.602C907.263 565.799 897.838 614.795 880.626 659.953L828.927 570.454Z" fill="white"/>
<path d="M285.604 771C343.549 819.175 418.043 848.149 499.307 848.149C580.571 848.149 655.064 819.175 713.01 771H816.718C741.812 863.707 627.159 923 498.65 923C370.141 923 255.487 863.707 180.582 771H285.604Z" fill="white"/>
<path d="M501.285 76L684.57 424.649L501.285 716.174L314.716 424.649L501.285 76Z" fill="#28E7F3"/>
<path d="M501.285 869.816L724.494 847.423L684.59 559.996L501.285 847.423L501.285 869.816Z" fill="white"/>
<path d="M361.42 841.65L273.94 847.423L313.843 559.996L501.285 847.423L501.285 888.201L361.42 841.65Z" fill="white"/>
</svg>
