<svg width="41" height="41" viewBox="0 0 41 41" fill="none" xmlns="http://www.w3.org/2000/svg">
<path d="M17.075 32.723C17.075 32.784 17.0826 32.9365 17.0979 33.1806C17.1131 33.4246 17.1169 33.6267 17.1093 33.7869C17.1017 33.9471 17.0788 34.1263 17.0407 34.3246C17.0025 34.5229 16.9263 34.6716 16.8119 34.7707C16.6975 34.8699 16.5411 34.9194 16.3428 34.9194H9.02141C7.20631 34.9194 5.65432 34.275 4.36544 32.9861C3.07657 31.6972 2.43213 30.1453 2.43213 28.3301V12.223C2.43213 10.4079 3.07657 8.85591 4.36544 7.56704C5.65432 6.27816 7.20631 5.63372 9.02141 5.63372H16.3428C16.5411 5.63372 16.7127 5.70617 16.8576 5.85108C17.0025 5.99598 17.075 6.16758 17.075 6.36586C17.075 6.42688 17.0826 6.57941 17.0979 6.82345C17.1131 7.0675 17.1169 7.2696 17.1093 7.42976C17.1017 7.58992 17.0788 7.76914 17.0407 7.96743C17.0025 8.16572 16.9263 8.31443 16.8119 8.41358C16.6975 8.51272 16.5411 8.56229 16.3428 8.56229H9.02141C8.01472 8.56229 7.15293 8.92074 6.43604 9.63763C5.71915 10.3545 5.3607 11.2163 5.3607 12.223V28.3301C5.3607 29.3368 5.71915 30.1986 6.43604 30.9155C7.15293 31.6324 8.01472 31.9909 9.02141 31.9909H15.6107H15.8624H16.1598C16.1598 31.9909 16.2475 31.9985 16.4229 32.0137C16.5983 32.029 16.686 32.0519 16.686 32.0824C16.686 32.1129 16.747 32.1548 16.8691 32.2082C16.9911 32.2616 17.0445 32.3302 17.0292 32.4141C17.014 32.498 17.0292 32.601 17.075 32.723ZM38.3071 20.2766C38.3071 20.6732 38.1622 21.0163 37.8724 21.3062L25.426 33.7526C25.1362 34.0424 24.793 34.1873 24.3964 34.1873C23.9998 34.1873 23.6566 34.0424 23.3668 33.7526C23.077 33.4628 22.9321 33.1196 22.9321 32.723V26.1337H12.6821C12.2856 26.1337 11.9424 25.9888 11.6526 25.699C11.3627 25.4092 11.2178 25.066 11.2178 24.6694V15.8837C11.2178 15.4871 11.3627 15.144 11.6526 14.8541C11.9424 14.5643 12.2856 14.4194 12.6821 14.4194H22.9321V7.83015C22.9321 7.43357 23.077 7.09038 23.3668 6.80057C23.6566 6.51077 23.9998 6.36586 24.3964 6.36586C24.793 6.36586 25.1362 6.51077 25.426 6.80057L37.8724 19.247C38.1622 19.5368 38.3071 19.88 38.3071 20.2766Z" fill="#9D9D9D"/>
</svg>
