<svg width="17" height="21" viewBox="0 0 13 17" fill="none" xmlns="http://www.w3.org/2000/svg">
<path d="M6.20976 0.0228657C6.30578 -0.0290267 6.44764 0.00947824 6.48052 0.117343C6.51615 0.206338 6.45458 0.28781 6.40415 0.356788C6.04747 0.849064 5.81078 1.4209 5.69878 2.01263C5.63106 2.04068 5.61141 2.10991 5.6325 2.17519C5.6659 2.18705 5.69957 2.19763 5.73362 2.2077C6.42603 2.14854 7.12838 2.16078 7.81004 2.30256C9.05037 2.54558 10.2095 3.15643 11.1003 4.02967C11.9886 4.89399 12.6121 6.01395 12.8643 7.21219C13.144 8.5095 12.9877 9.89058 12.4283 11.0989C11.2421 13.5664 9.2424 15.6534 6.79567 16.9764C6.71682 17.0121 6.60312 17.0135 6.54902 16.9371C6.48536 16.857 6.51156 16.7432 6.57457 16.6703C6.90466 16.2221 7.13506 15.7067 7.26029 15.1696C7.28439 15.0581 7.31727 14.9453 7.30731 14.8307C7.26697 14.7794 7.2003 14.795 7.14358 14.7968C5.95591 14.9124 4.73392 14.7059 3.66061 14.1954C2.51119 13.6563 1.53572 12.775 0.890871 11.7038C0.293304 10.7183 -0.020805 9.57056 0.00106998 8.42574C0.00513061 7.37501 0.299722 6.33283 0.818303 5.41305C2.02562 3.15681 3.92114 1.25298 6.20976 0.0231207V0.0228657ZM6.14309 6.0522C5.43667 6.14451 4.78501 6.5483 4.38943 7.12384C4.12156 7.51909 3.95939 7.98841 3.96267 8.46373C3.94263 9.10047 4.20342 9.73835 4.65546 10.1971C5.05039 10.611 5.59897 10.8807 6.17427 10.9529C6.75991 11.0283 7.37163 10.8948 7.86768 10.5815C8.37185 10.27 8.75591 9.77813 8.9279 9.22108C9.25052 8.25399 8.86384 7.12103 8.02211 6.52357C7.49345 6.13202 6.80039 5.95823 6.14322 6.05233L6.14309 6.0522Z" fill="#828689"/>
</svg>
