<svg width="14" height="15" viewBox="0 0 14 15" fill="none" xmlns="http://www.w3.org/2000/svg">
<path d="M9.41537 1.1157C9.54086 1.1157 9.77196 1.1356 9.91889 1.27334C9.95256 1.30395 10.0551 1.39884 10.0551 1.63453C10.0551 1.89777 9.91276 2.31252 9.51025 2.68748C9.01898 3.14509 8.20937 3.49097 7.62626 3.49097C7.45791 3.49097 7.37833 3.46036 7.36455 3.46036C7.25589 3.23998 7.49158 2.2865 8.17111 1.65442C8.53229 1.31772 8.99755 1.1157 9.41537 1.1157ZM9.41537 0C8.74197 0 7.99969 0.287726 7.40894 0.837159C6.39271 1.78451 5.80196 3.52923 6.59014 4.26538C6.8442 4.5026 7.21151 4.60514 7.62473 4.60514C8.49709 4.60514 9.58066 4.14601 10.2709 3.50321C11.2871 2.55586 11.4708 1.19223 10.6795 0.456076C10.3505 0.148454 9.90052 0 9.41537 0ZM3.71289 1.1157C4.1307 1.1157 4.59596 1.31772 4.95868 1.65442C5.64279 2.29262 5.87695 3.25528 5.78206 3.44506C5.78206 3.44506 5.7086 3.49097 5.50352 3.49097C4.92042 3.49097 4.11081 3.14509 3.61953 2.68748C3.21855 2.31252 3.07469 1.89777 3.07469 1.63453C3.07469 1.40037 3.17723 1.30548 3.2109 1.27487C3.35629 1.13713 3.58739 1.1157 3.71289 1.1157ZM3.71289 0C3.22773 0 2.77931 0.148454 2.4472 0.457606C1.65748 1.19376 1.84114 2.55739 2.85736 3.50474C3.54607 4.14754 4.62963 4.60667 5.50199 4.60667C5.91674 4.60667 6.28252 4.5026 6.53658 4.26691C7.32629 3.53076 6.73401 1.78451 5.71778 0.83869C5.12703 0.287726 4.38476 0 3.71289 0ZM13.1267 8.98225V5.15458C13.1267 4.55311 12.6339 4.0603 12.0324 4.0603H7.1105V8.98225H13.1267ZM7.1105 10.0765V14.9985H12.0324C12.6339 14.9985 13.1267 14.5057 13.1267 13.9042V10.0765H7.1105ZM6.01775 8.98225V4.0603H1.09428C0.492807 4.0603 0 4.55311 0 5.15458V8.98378H6.01775V8.98225ZM0.00153043 10.0765V13.9057C0.00153043 14.5072 0.494337 15 1.09581 15H6.01775V10.0765H0.00153043Z" fill="#828689"/>
</svg>
