<svg width="20" height="20" viewBox="0 0 20 20" fill="none" xmlns="http://www.w3.org/2000/svg">
<g clip-path="url(#clip0_409_5)">
<path d="M17.6339 10.975C17.675 10.655 17.7058 10.33 17.7058 10C17.7058 9.67 17.675 9.345 17.6339 9.025L19.8077 7.37C20.003 7.22 20.0595 6.95 19.931 6.73L17.8754 3.265C17.747 3.05 17.4797 2.96 17.2485 3.05L14.6893 4.055C14.16 3.66 13.5793 3.325 12.9523 3.07L12.5669 0.42C12.5207 0.185 12.31 0 12.053 0H7.94185C7.6849 0 7.47421 0.185 7.4331 0.42L7.04768 3.07C6.42072 3.325 5.84002 3.655 5.31071 4.055L2.75152 3.05C2.52026 2.965 2.25304 3.05 2.12457 3.265L0.0689877 6.73C-0.0594859 6.945 -0.00295741 7.215 0.192323 7.37L2.36096 9.025C2.31985 9.345 2.28901 9.67 2.28901 10C2.28901 10.33 2.31985 10.655 2.36096 10.975L0.192323 12.63C-0.00295741 12.78 -0.0594859 13.05 0.0689877 13.27L2.12457 16.735C2.25304 16.95 2.52026 17.04 2.75152 16.95L5.31071 15.945C5.84002 16.34 6.42072 16.675 7.04768 16.93L7.4331 19.58C7.47421 19.815 7.6849 20 7.94185 20H12.053C12.31 20 12.5207 19.815 12.5618 19.58L12.9472 16.93C13.5741 16.675 14.1548 16.345 14.6841 15.945L17.2433 16.95C17.4746 17.035 17.7418 16.95 17.8703 16.735L19.9259 13.27C20.0543 13.055 19.9978 12.785 19.8025 12.63L17.6339 10.975V10.975ZM9.99743 13.5C8.00866 13.5 6.40017 11.935 6.40017 10C6.40017 8.065 8.00866 6.5 9.99743 6.5C11.9862 6.5 13.5947 8.065 13.5947 10C13.5947 11.935 11.9862 13.5 9.99743 13.5Z" fill="white"/>
</g>
<defs>
<clipPath id="clip0_409_5">
<rect width="20" height="20" fill="white"/>
</clipPath>
</defs>
</svg>
