<svg width="19" height="19" viewBox="0 0 19 19" fill="none" xmlns="http://www.w3.org/2000/svg">
<g clip-path="url(#clip0_313_2)">
<path d="M0.390352 12.2839C1.57741 16.1835 5.20224 19.0203 9.48982 19.0203C14.7421 19.0203 19 14.7624 19 9.51019C19 4.25786 14.7421 0 9.48982 0C4.44977 0 0.325725 3.92069 0 8.87836C0.00137059 8.88065 0.00273905 8.88294 0.00410538 8.88525L5.11432 10.9877C5.25334 10.8963 5.40147 10.8172 5.55963 10.7526C5.91836 10.6049 6.29663 10.5388 6.67359 10.5559L9.0008 7.17533C8.99997 7.16027 8.99997 7.14428 8.99997 7.12829C8.99997 5.13321 10.6203 3.51017 12.6121 3.51017C14.6048 3.51017 16.2244 5.13321 16.2244 7.12829C16.2244 9.12319 14.6048 10.7477 12.6121 10.7477C12.5852 10.7477 12.5575 10.7469 12.5305 10.746L9.20072 13.1256C9.21048 13.4929 9.1428 13.8611 8.99746 14.2121C8.43908 15.555 6.89145 16.1942 5.54913 15.6334C4.72872 15.2913 4.17267 14.5803 3.99126 13.7697L0.390352 12.2839Z" fill="white"/>
<path d="M5.78065 15.0767C6.81706 15.5086 8.00941 15.0162 8.44159 13.9788C8.65053 13.4776 8.65136 12.9224 8.44475 12.4196C8.23823 11.9167 7.84854 11.5232 7.34624 11.3143C6.84803 11.1069 6.31476 11.1134 5.84574 11.2914L7.06133 11.7951C7.8252 12.1135 8.18672 12.9917 7.86806 13.7566C7.55034 14.5207 6.67349 14.8832 5.90916 14.5648L4.73328 14.0775C4.94156 14.5127 5.30253 14.8775 5.78065 15.0767Z" fill="white"/>
<path fill-rule="evenodd" clip-rule="evenodd" d="M10.2057 7.12829C10.2057 8.45796 11.2857 9.53955 12.6122 9.53955C13.9396 9.53955 15.0196 8.45796 15.0196 7.12829C15.0196 5.79971 13.9396 4.71774 12.6122 4.71774C11.2857 4.71774 10.2057 5.79971 10.2057 7.12829ZM12.6163 5.31314C11.6188 5.31314 10.809 6.12442 10.809 7.12465C10.809 8.12499 11.6188 8.93543 12.6163 8.93553C13.6147 8.93553 14.4245 8.12499 14.4245 7.12465C14.4245 6.12442 13.6147 5.31314 12.6163 5.31314Z" fill="white"/>
</g>
<defs>
<clipPath id="clip0_313_2">
<rect width="19" height="19" fill="white"/>
</clipPath>
</defs>
</svg>
