<svg width="12" height="13" viewBox="0 0 12 13" fill="none" xmlns="http://www.w3.org/2000/svg">
<path d="M3.30416 0.53566C3.22249 0.558203 3.10702 0.600471 3.04788 0.631468C2.91551 0.699097 2.67318 0.913255 2.62249 1.00919L2.58306 1.08245L0.436531 1.09936L0.304163 1.17826C0.160531 1.25998 0.0844898 1.35578 0.0337959 1.50525C0.00844898 1.57288 0 1.99287 0 2.89471C0 4.15455 0.00281633 4.194 0.0591429 4.32926C0.115469 4.4617 0.211224 4.54342 1.58878 5.64263C2.57743 6.4347 3.15208 6.91386 3.35216 7.11675C3.51551 7.28019 3.72404 7.47193 3.81698 7.54237C4.19449 7.8298 4.71 8.07789 5.12682 8.1737C5.24229 8.19906 5.35494 8.22724 5.37465 8.23288C5.4 8.23851 5.40845 8.33432 5.40845 8.58229V8.92056H4.73241C3.98596 8.92056 3.93808 8.92901 3.76898 9.10936C3.61971 9.26716 3.60563 9.34042 3.60563 10.0478V10.6962H8.39437V10.048C8.39437 9.34055 8.38029 9.26728 8.23102 9.10948C8.06204 8.92914 8.01416 8.92068 7.26759 8.92068H6.58873L6.60563 8.233L6.77743 8.19918C7.43939 8.06393 8.0591 7.70875 8.61967 7.14223C8.85073 6.90835 9.36049 6.48273 10.4112 5.64276C11.7887 4.54072 11.8816 4.46182 11.9409 4.32938C11.9972 4.19412 12 4.15467 12 2.89484C12 1.97878 11.9916 1.57301 11.9662 1.50538C11.9183 1.36167 11.831 1.2574 11.6902 1.17556L11.5635 1.09948L10.493 1.09103L9.42257 1.07976L9.31837 0.944497C9.20008 0.789514 9.0142 0.651438 8.80567 0.566779C8.66486 0.507604 8.63106 0.507603 6.05645 0.501968C3.876 0.496209 3.42539 0.501845 3.30416 0.53566ZM2.39437 4.78024L2.32959 4.72952C2.29298 4.70134 2.01967 4.48436 1.72396 4.24472L1.1831 3.81077V2.26914H2.39437V4.78024ZM10.8169 3.81077L10.2197 4.28993C9.89008 4.55481 9.61408 4.76627 9.60563 4.76346C9.59718 4.75782 9.59437 4.19412 9.6 3.51207L9.60563 2.26914H10.8169V3.81077Z" fill="#828689"/>
<path d="M3.01408 12.5H8.98592V11.3162H3.01408V12.5Z" fill="#828689"/>
</svg>
